# Blender 3.5.0
# www.blender.org
mtllib float_R_arm.mtl
o 立方体.001
v -1.292842 -1.139020 0.259454
v -1.292842 -0.047038 0.259454
v -1.292842 -1.139020 -0.259454
v -1.292842 -0.047038 -0.259454
v -0.800111 -1.139020 0.259454
v -0.800111 -0.047038 0.259454
v -0.800111 -1.139020 -0.259454
v -0.800111 -0.047038 -0.259454
v -1.373232 -0.211428 0.318382
v -1.429829 0.221926 0.318382
v -1.373232 -0.211428 -0.318382
v -1.429829 0.221926 -0.318382
v -0.683360 -0.308656 0.318382
v -0.764014 0.308884 0.318382
v -0.683360 -0.308656 -0.318382
v -0.764014 0.308884 -0.318382
vn -1.0000 -0.0000 -0.0000
vn -0.0000 -0.0000 -1.0000
vn 1.0000 -0.0000 -0.0000
vn -0.0000 -0.0000 1.0000
vn -0.0000 -1.0000 -0.0000
vn -0.0000 1.0000 -0.0000
vn -0.9916 -0.1295 -0.0000
vn 0.9916 0.1295 -0.0000
vn -0.1396 -0.9902 -0.0000
vn -0.1295 0.9916 -0.0000
vt 0.397517 0.536312
vt 0.695324 0.057536
vt 0.922490 0.859205
vt 0.397517 0.580594
vt 0.695324 0.101911
vt 0.396411 0.860067
vt 0.715348 0.376865
vt 0.922490 0.838118
vt 0.376430 0.536312
vt 0.376430 0.580594
vt 0.715348 0.421241
vt 0.396411 0.838980
vt 0.715348 0.057536
vt 0.512589 0.536312
vt 0.942464 0.859205
vt 0.512589 0.580594
vt 0.715348 0.101911
vt 0.376430 0.860067
vt 0.533676 0.536312
vt 0.695324 0.376865
vt 0.942464 0.838118
vt 0.376430 0.838980
vt 0.695324 0.421241
vt 0.533676 0.580594
vt 0.666470 0.863937
vt 0.848179 0.057536
vt 0.083412 0.711981
vt 0.648748 0.863937
vt 0.830419 0.057536
vt 0.261358 0.696007
vt 0.057536 0.711981
vt 0.666470 0.838060
vt 0.791391 0.536312
vt 0.648748 0.838060
vt 0.809151 0.536312
vt 0.235482 0.696007
vt 0.855728 0.084823
vt 0.855675 0.199894
vt 0.083412 0.683738
vt 0.830419 0.199894
vt 0.830419 0.084823
vt 0.261358 0.723237
vt 0.783842 0.563599
vt 0.855675 0.225771
vt 0.057536 0.683738
vt 0.235482 0.723237
vt 0.809151 0.563599
vt 0.830419 0.225771
s 0
usemtl マテリアル.005
f 2/4/1 3/9/1 1/1/1
f 4/11/2 7/20/2 3/7/2
f 8/24/3 5/14/3 7/19/3
f 6/17/4 1/2/4 5/13/4
f 7/21/5 1/3/5 3/8/5
f 4/12/6 6/18/6 8/22/6
f 10/28/7 11/32/7 9/25/7
f 11/33/2 16/47/2 15/43/2
f 16/48/8 13/38/8 15/44/8
f 14/41/4 9/26/4 13/37/4
f 15/45/9 9/27/9 11/31/9
f 12/36/10 14/42/10 16/46/10
f 2/4/1 4/10/1 3/9/1
f 4/11/2 8/23/2 7/20/2
f 8/24/3 6/16/3 5/14/3
f 6/17/4 2/5/4 1/2/4
f 7/21/5 5/15/5 1/3/5
f 4/12/6 2/6/6 6/18/6
f 10/28/7 12/34/7 11/32/7
f 11/33/2 12/35/2 16/47/2
f 16/48/8 14/40/8 13/38/8
f 14/41/4 10/29/4 9/26/4
f 15/45/9 13/39/9 9/27/9
f 12/36/10 10/30/10 14/42/10
