# Blender v3.5.0 OBJ File: ''
# www.blender.org
mtllib speedUP.mtl
o 立方体.002
v 1.157192 -0.879680 -0.943528
v 1.157192 -0.879680 0.943528
v -1.157192 -0.879680 -0.943528
v -1.157192 -0.879680 0.943528
v 0.778742 -0.459279 0.000000
v 0.000000 0.040076 0.000000
v -0.778742 -0.459279 0.000000
v 0.000000 -0.440455 0.592550
v 0.000000 -0.440455 -0.592550
v 0.000000 -0.459279 0.000000
v 0.567148 -0.217206 -0.414500
v 0.567148 -0.217206 0.414500
v -0.567148 -0.217206 0.414500
v -0.567148 -0.217206 -0.414500
v -0.567148 -0.217206 0.000000
v 0.567148 -0.217206 0.000000
v 0.000000 -0.217206 0.414500
v 0.000000 -0.217206 -0.414500
v 0.937253 -0.256454 -0.943528
v 0.937253 -0.256454 0.943528
v -0.937253 -0.256454 -0.943528
v -0.937253 -0.256454 0.943528
v 0.688882 0.163948 0.000000
v 0.000000 0.821097 0.000000
v -0.688882 0.163948 0.000000
v 0.000000 0.182772 0.663783
v 0.000000 0.182772 -0.663783
v 0.000000 0.163948 0.000000
v 0.435282 0.563815 -0.414500
v 0.435282 0.563815 0.414500
v -0.435282 0.563815 0.414500
v -0.435282 0.563815 -0.414500
v -0.435282 0.563815 0.000000
v 0.435282 0.563815 0.000000
v 0.000000 0.563815 0.414500
v 0.000000 0.563815 -0.414500
vt 0.150762 0.093543
vt 0.215600 0.176899
vt 0.150762 0.177705
vt 0.086357 0.179206
vt 0.150762 0.261866
vt 0.043035 0.296833
vt 0.248832 0.293159
vt 0.386588 0.527642
vt 0.417800 0.465448
vt 0.479256 0.592346
vt 0.106640 0.531824
vt 0.141846 0.486370
vt 0.203828 0.589838
vt 0.431817 0.736429
vt 0.396666 0.781883
vt 0.334901 0.678416
vt 0.431817 0.827337
vt 0.334901 0.885351
vt 0.386588 0.403254
vt 0.479256 0.338550
vt 0.106640 0.440916
vt 0.203828 0.382902
vt 0.898164 0.461137
vt 0.855915 0.405406
vt 0.898164 0.399844
vt 0.898164 0.338550
vt 0.626905 0.758453
vt 0.658182 0.820646
vt 0.565325 0.885351
vt 0.658182 0.696259
vt 0.565325 0.631555
vt 0.852960 0.339357
vt 0.807756 0.340164
vt 0.807756 0.401458
vt 0.334901 0.465448
vt 0.386588 0.465448
vt 0.106640 0.486370
vt 0.043035 0.486370
vt 0.369595 0.141739
vt 0.444385 0.070456
vt 0.444033 0.143068
vt 0.444385 0.215260
vt 0.518471 0.144397
vt 0.537454 0.252481
vt 0.537454 0.046651
vt 0.675210 0.193547
vt 0.724381 0.145814
vt 0.780488 0.248594
vt 0.618841 0.487472
vt 0.669657 0.442017
vt 0.721687 0.545485
vt 0.148052 0.733920
vt 0.096275 0.779375
vt 0.043035 0.675907
vt 0.148052 0.824829
vt 0.043035 0.882842
vt 0.675210 0.098081
vt 0.780488 0.043035
vt 0.618841 0.396563
vt 0.721687 0.338550
vt 0.866557 0.043035
vt 0.908806 0.084514
vt 0.866557 0.090077
vt 0.866557 0.137120
vt 0.801262 0.734334
vt 0.851143 0.782067
vt 0.744252 0.837114
vt 0.851143 0.686601
vt 0.744252 0.631554
vt 0.911761 0.136313
vt 0.956965 0.135506
vt 0.956965 0.088463
vt 0.623523 0.145814
vt 0.675210 0.145814
vt 0.618841 0.442017
vt 0.565325 0.442018
vt 0.248832 0.043035
vt 0.043035 0.046709
vt 0.431817 0.781883
vt 0.658182 0.758453
vt 0.334901 0.043035
vt 0.334901 0.248864
vt 0.148052 0.779375
vt 0.851143 0.734334
vn 0.0000 -0.9995 -0.0318
vn 0.0000 -0.9995 0.0318
vn -0.2552 -0.9171 -0.3063
vn -0.2552 -0.9171 0.3063
vn -0.0002 0.6239 0.7815
vn 0.7487 0.6629 0.0049
vn -0.7487 0.6629 -0.0049
vn -0.7487 0.6629 0.0049
vn 0.0002 0.6239 0.7815
vn 0.7487 0.6629 -0.0049
vn 0.0000 -0.8496 0.5274
vn -0.0002 0.6239 -0.7815
vn 0.0002 0.6239 -0.7815
vn 0.4131 -0.9107 0.0000
vn 0.0000 -0.8496 -0.5274
vn 0.0000 0.8496 0.5274
vn 0.4131 0.9107 0.0000
vn 0.0000 -0.9996 -0.0283
vn 0.0000 -0.9996 0.0283
vn -0.3252 -0.8927 -0.3121
vn -0.3252 -0.8927 0.3121
vn 0.0044 0.5439 0.8391
vn 0.8497 0.5272 -0.0112
vn -0.8497 0.5272 0.0112
vn -0.8497 0.5272 -0.0112
vn -0.0044 0.5439 0.8391
vn 0.8497 0.5272 0.0112
vn 0.0044 0.5439 -0.8391
vn -0.0044 0.5439 -0.8391
vn 0.5088 -0.8609 0.0000
vn 0.5088 0.8609 0.0000
vn 0.2552 -0.9171 0.3063
vn 0.2552 -0.9171 -0.3063
vn 0.0000 0.6235 0.7818
vn 0.7529 0.6581 0.0000
vn -0.7529 0.6581 0.0000
vn 0.0000 0.6235 -0.7818
vn 0.3252 -0.8927 0.3121
vn 0.3252 -0.8927 -0.3121
vn 0.0000 0.5475 0.8368
vn 0.8445 0.5356 0.0000
vn -0.8445 0.5356 0.0000
vn 0.0000 0.5475 -0.8368
usemtl マテリアル
s off
f 7/1/1 9/2/1 10/3/1
f 8/4/2 7/1/2 10/3/2
f 8/4/3 5/5/3 2/6/3
f 5/5/4 9/2/4 1/7/4
f 12/8/5 8/9/5 2/10/5
f 11/11/6 5/12/6 1/13/6
f 13/14/7 7/15/7 4/16/7
f 7/15/8 14/17/8 3/18/8
f 8/9/9 13/19/9 4/20/9
f 5/12/10 12/21/10 2/22/10
f 11/23/11 6/24/11 18/25/11
f 14/26/11 18/25/11 6/24/11
f 9/27/12 11/28/12 1/29/12
f 14/30/13 9/27/13 3/31/13
f 15/32/14 14/26/14 6/24/14
f 15/32/14 6/24/14 13/33/14
f 17/34/15 13/33/15 6/24/15
f 12/8/16 6/35/16 17/36/16
f 16/37/17 6/38/17 12/21/17
f 16/37/17 11/11/17 6/38/17
f 25/39/18 27/40/18 28/41/18
f 26/42/19 25/39/19 28/41/19
f 26/42/20 23/43/20 20/44/20
f 23/43/21 27/40/21 19/45/21
f 30/46/22 26/47/22 20/48/22
f 29/49/23 23/50/23 19/51/23
f 31/52/24 25/53/24 22/54/24
f 25/53/25 32/55/25 21/56/25
f 26/47/26 31/57/26 22/58/26
f 23/50/27 30/59/27 20/60/27
f 29/61/11 24/62/11 36/63/11
f 32/64/11 36/63/11 24/62/11
f 27/65/28 29/66/28 19/67/28
f 32/68/29 27/65/29 21/69/29
f 33/70/30 32/64/30 24/62/30
f 33/70/30 24/62/30 31/71/30
f 35/72/15 31/71/15 24/62/15
f 30/46/16 24/73/16 35/74/16
f 34/75/31 24/76/31 30/59/31
f 34/75/31 29/49/31 24/76/31
f 7/1/32 3/77/32 9/2/32
f 8/4/33 4/78/33 7/1/33
f 8/4/2 10/3/2 5/5/2
f 5/5/1 10/3/1 9/2/1
f 12/8/34 17/36/34 8/9/34
f 11/11/35 16/37/35 5/12/35
f 13/14/36 15/79/36 7/15/36
f 7/15/36 15/79/36 14/17/36
f 8/9/34 17/36/34 13/19/34
f 5/12/35 16/37/35 12/21/35
f 9/27/37 18/80/37 11/28/37
f 14/30/37 18/80/37 9/27/37
f 25/39/38 21/81/38 27/40/38
f 26/42/39 22/82/39 25/39/39
f 26/42/19 28/41/19 23/43/19
f 23/43/18 28/41/18 27/40/18
f 30/46/40 35/74/40 26/47/40
f 29/49/41 34/75/41 23/50/41
f 31/52/42 33/83/42 25/53/42
f 25/53/42 33/83/42 32/55/42
f 26/47/40 35/74/40 31/57/40
f 23/50/41 34/75/41 30/59/41
f 27/65/43 36/84/43 29/66/43
f 32/68/43 36/84/43 27/65/43
